<svg xmlns="http://www.w3.org/2000/svg" width="32" height="32"><path fill="none" stroke="#000" stroke-width="2" stroke-linecap="round" stroke-linejoin="round" stroke-miterlimit="10" d="M10.007 16l8-7v4h1.125c.363 0 .728.023 1.09.057 2.922.264 5.63 2.017 6.959 4.867a8.45 8.45 0 0 1 .607 5.344c-1.554-2.697-4.411-4.256-7.387-4.268h-2.395v4l-7.999-7z"/><path fill="none" stroke="#000" stroke-width="2" stroke-linecap="round" stroke-linejoin="round" stroke-miterlimit="10" d="M28 12V8.01A4.011 4.011 0 0 0 23.989 4H8.01A4.01 4.01 0 0 0 4 8.01v15.979A4.011 4.011 0 0 0 8.01 28h15.979c.484 0 .949-.086 1.38-.243"/></svg>